<?xml version="1.0" standalone="no"?>
<!DOCTYPE svg PUBLIC "-//W3C//DTD SVG 20010904//EN"
 "http://www.w3.org/TR/2001/REC-SVG-20010904/DTD/svg10.dtd">
<svg version="1.0" xmlns="http://www.w3.org/2000/svg"
 width="506.000000pt" height="506.000000pt" viewBox="0 0 506.000000 506.000000"
 preserveAspectRatio="xMidYMid meet">
<metadata>
Created by potrace 1.11, written by Peter Selinger 2001-2013
</metadata>
<g transform="translate(0.000000,506.000000) scale(0.100000,-0.100000)"
fill="#000000" stroke="none">
<path d="M1682 4213 l-843 -847 417 -417 c230 -230 416 -421 414 -423 -3 -3
-191 -192 -418 -420 l-412 -414 845 -847 845 -847 846 848 845 848 -417 417
c-230 230 -416 421 -414 423 3 3 191 192 418 420 l412 414 -844 846 c-464 465
-846 846 -848 845 -2 0 -382 -381 -846 -846z"/>
</g>
</svg>
